<svg version="1.1" id="Layer_1" xmlns="http://www.w3.org/2000/svg" xmlns:xlink="http://www.w3.org/1999/xlink" x="0px" y="0px"
	 width="100%" viewBox="0 0 1024 1024" enable-background="new 0 0 1024 1024" xml:space="preserve">
<path fill="#000000" opacity="1.000000" stroke="none" 
	d="
M603.244629,185.066620 
	C610.766663,213.302139 596.925903,249.687561 559.320923,255.957901 
	C547.758240,257.885895 536.463684,255.867615 525.116821,254.279297 
	C515.727600,252.965012 506.361633,251.475845 496.958771,250.271698 
	C493.061920,249.772675 491.727844,248.584702 492.389587,244.169113 
	C497.388184,210.814056 502.043518,177.407608 506.818573,144.018982 
	C507.250275,141.000381 507.499115,137.967545 512.051514,138.722427 
	C528.605347,141.467377 545.430359,142.763809 561.729065,146.804291 
	C582.177734,151.873535 596.816406,163.875458 603.244629,185.066620 
M543.595947,244.990448 
	C551.286194,245.217834 558.899597,245.070068 566.135803,241.848999 
	C583.339294,234.191147 593.690735,216.272278 592.555115,198.097275 
	C591.009399,173.358749 573.131775,160.496445 556.967651,157.326324 
	C546.214600,155.217407 535.271667,154.092804 524.476990,152.171951 
	C520.194580,151.409927 518.655518,152.383865 518.146606,156.887711 
	C517.010437,166.943283 515.169495,176.917679 513.697388,186.937180 
	C511.281769,203.379044 508.939056,219.831619 506.544128,236.276566 
	C506.193420,238.684784 506.303101,240.391037 509.482880,240.756851 
	C520.547791,242.029785 531.584412,243.548492 543.595947,244.990448 
z"/>
<path fill="#000000" opacity="1.000000" stroke="none" 
	d="
M720.976929,542.848877 
	C723.241455,541.053467 725.100098,542.417908 726.865662,543.062195 
	C759.404907,554.936035 791.923828,566.865784 824.427551,578.836609 
	C826.198853,579.488892 829.021729,579.716370 828.855103,582.156799 
	C828.644043,585.246948 827.551697,588.377136 825.377258,590.759644 
	C824.400269,591.830078 822.872253,591.079346 821.609192,590.616638 
	C818.834412,589.600159 816.049744,588.610718 811.932495,587.129395 
	C820.344482,601.771484 819.581543,615.455322 812.169006,628.863220 
	C807.148499,637.944458 799.731140,644.434021 789.835632,647.843079 
	C769.538757,654.835510 743.807678,643.747864 735.011292,624.346558 
	C726.878540,606.408813 733.316833,577.971313 757.629028,568.421509 
	C756.991394,566.779358 755.397766,566.727783 754.125854,566.266113 
	C743.950562,562.573120 733.748230,558.954102 723.590393,555.213989 
	C716.922729,552.759033 716.944092,552.683777 719.541321,545.913635 
	C719.898438,544.982788 720.343201,544.085632 720.976929,542.848877 
M743.383301,609.935852 
	C745.580933,624.178345 754.648987,632.068359 767.766174,636.063660 
	C787.206360,641.984924 806.494507,628.877441 807.474548,606.616577 
	C808.266663,588.626831 788.094055,572.656128 769.609680,575.733459 
	C752.662292,578.554871 743.027405,590.776794 743.383301,609.935852 
z"/>
<path fill="#000000" opacity="1.000000" stroke="none" 
	d="
M240.517029,444.241699 
	C250.180817,449.831421 254.370483,458.647156 255.691513,468.696869 
	C258.085938,486.912354 255.389908,504.256866 244.460678,519.609131 
	C239.365845,526.765808 236.397018,526.680725 230.144501,519.603516 
	C230.415298,517.807678 231.988739,516.925659 232.995331,515.645569 
	C244.184998,501.415649 248.088470,485.448212 244.047943,467.764893 
	C242.461258,460.820740 238.374786,455.769501 231.107010,453.946228 
	C225.249557,452.476746 220.281586,453.944305 216.169846,458.436920 
	C211.509735,463.528717 209.701157,470.004456 207.375259,476.226837 
	C204.635712,483.555725 202.233231,491.020691 199.241165,498.242950 
	C193.291901,512.603394 183.551682,519.284607 170.829300,518.198181 
	C157.470215,517.057434 146.832535,507.490814 143.909668,493.132324 
	C140.417023,475.974884 143.210968,459.690002 152.193314,444.578674 
	C154.607483,440.517212 161.784653,440.739502 163.972610,444.863739 
	C164.867966,446.551453 163.627350,447.720245 162.837067,448.919342 
	C155.251587,460.428925 152.969818,473.136963 154.310623,486.645538 
	C155.488373,498.511261 162.959381,505.383484 173.872009,504.959778 
	C180.354324,504.708099 184.211731,500.885468 187.073257,495.680511 
	C190.545807,489.364105 192.374969,482.394653 194.785843,475.655609 
	C196.748322,470.169952 198.619431,464.631775 200.956696,459.303589 
	C208.634857,441.799713 222.583084,436.452057 240.517029,444.241699 
z"/>
<path fill="#000000" opacity="1.000000" stroke="none" 
	d="
M359.509094,183.553070 
	C366.688385,202.189499 373.734589,220.462967 380.841675,238.894318 
	C383.146149,237.546646 383.542938,235.646851 384.334381,234.077515 
	C392.356293,218.169937 400.661926,202.391052 408.138397,186.229309 
	C411.480438,179.004868 417.750183,178.739548 423.479889,176.232239 
	C424.578827,179.084152 423.164032,180.546936 422.428101,182.121567 
	C417.070923,193.583359 411.782593,205.080673 406.182739,216.423706 
	C404.439026,219.955704 405.298248,221.621231 408.493805,223.476883 
	C423.324890,232.089401 438.038452,240.904526 452.777496,249.675018 
	C454.181213,250.510300 455.844421,251.041489 456.724884,252.596771 
	C452.282471,257.581238 445.223022,258.903900 439.713501,255.723648 
	C427.744141,248.814484 415.801331,241.859329 403.831940,234.950195 
	C402.274689,234.051285 400.852936,232.779755 398.111267,232.780212 
	C394.701752,239.585297 391.109985,246.662827 387.619263,253.789825 
	C386.815125,255.431564 387.714752,257.054443 388.308228,258.597321 
	C390.220276,263.568390 392.083405,268.561127 394.135132,273.474640 
	C395.368622,276.428650 394.707672,278.232239 391.584015,279.113098 
	C390.466766,279.428162 389.339233,279.803680 388.317810,280.343445 
	C385.239471,281.970154 383.679321,281.164093 382.420959,277.802521 
	C376.644501,262.371399 370.582306,247.047531 364.668121,231.667664 
	C357.499390,213.025391 350.607208,194.271927 343.103149,175.766159 
	C340.615662,169.631744 345.067139,169.834244 348.187531,168.172791 
	C352.179169,166.047409 353.852692,167.870453 355.042267,171.485580 
	C356.341827,175.434814 357.919556,179.292526 359.509094,183.553070 
z"/>
<path fill="#000000" opacity="1.000000" stroke="none" 
	d="
M618.074158,256.139343 
	C621.703918,274.475983 639.685791,286.729462 657.746216,283.119354 
	C662.166016,282.235870 663.080872,283.849213 663.904541,287.580475 
	C664.800049,291.636536 663.591492,293.394287 659.684753,294.278625 
	C638.301453,299.119232 613.284119,283.685028 607.311584,261.851593 
	C600.007812,235.151932 621.229797,206.504257 648.399719,206.805023 
	C664.489319,206.983124 677.057129,214.337692 684.988770,228.246429 
	C692.852722,242.036392 691.139465,256.054260 683.815247,269.736877 
	C681.939819,273.240540 679.988464,272.918701 677.026306,271.209473 
	C660.727051,261.804230 644.346558,252.539795 627.991150,243.231918 
	C625.837097,242.006027 623.667297,240.807938 621.075195,239.356430 
	C617.737610,244.609146 617.396790,250.074753 618.074158,256.139343 
M675.863831,257.982574 
	C682.640808,244.770355 676.814331,228.490921 662.740906,221.316589 
	C649.156250,214.391434 632.777771,218.517029 626.644836,230.414703 
	C627.147095,231.801178 628.413940,232.323761 629.562317,232.976486 
	C640.120972,238.978134 650.624512,245.080139 661.266296,250.930542 
	C665.884216,253.469284 669.943848,257.102020 675.863831,257.982574 
z"/>
<path fill="#000000" opacity="1.000000" stroke="none" 
	d="
M691.279480,696.142456 
	C682.688354,696.427002 682.580017,696.326538 682.630432,688.576111 
	C682.768616,667.337402 701.830994,646.794861 723.252075,644.800110 
	C744.471252,642.824097 766.017456,658.906128 770.308960,679.923157 
	C773.791199,696.976685 765.286926,715.619995 750.136963,724.144714 
	C734.827271,732.759338 715.305969,730.437683 702.203125,718.688416 
	C699.351196,716.131165 700.292847,714.486145 702.265625,712.111816 
	C714.604797,697.261780 726.835876,682.321899 739.082214,667.394897 
	C740.336731,665.865906 741.880798,664.505859 742.513916,661.795654 
	C736.967224,657.371704 730.403320,655.713501 723.293701,656.542725 
	C707.529602,658.381287 693.551147,674.371582 693.283264,690.384888 
	C693.250793,692.324768 694.535278,694.841248 691.279480,696.142456 
M727.772095,696.250366 
	C723.424072,701.659790 719.076050,707.069214 714.751099,712.449890 
	C725.347290,722.107727 743.991821,719.077087 753.809692,706.473083 
	C762.930481,694.763733 761.365479,676.016785 750.400146,668.830505 
	C743.022705,677.765137 735.619507,686.730896 727.772095,696.250366 
z"/>
<path fill="#000000" opacity="1.000000" stroke="none" 
	d="
M734.895203,369.090698 
	C732.097473,386.777802 739.290527,401.164825 754.685181,408.622711 
	C758.064941,410.260010 758.629333,411.911041 757.127869,415.174988 
	C755.621765,418.448914 754.200134,420.507843 750.036194,418.733490 
	C744.067749,416.190186 738.867859,412.678833 734.823853,407.683990 
	C723.356934,393.520782 718.434814,377.633270 725.590210,360.191956 
	C732.748657,342.743225 747.234070,334.074310 765.549988,333.241302 
	C787.573181,332.239685 802.838379,346.344543 807.172607,366.817627 
	C811.148376,385.597382 800.681030,404.377258 783.148438,412.167480 
	C779.211853,413.916626 778.215942,411.702911 776.895935,408.960358 
	C768.443848,391.399261 759.945862,373.860077 751.412903,356.338135 
	C750.632751,354.736176 750.179138,352.860748 748.208069,351.582581 
	C741.397827,355.371124 737.142517,361.177094 734.895203,369.090698 
M766.095520,344.739380 
	C757.243652,346.215942 757.173340,346.249725 761.133057,354.489319 
	C767.408569,367.547638 773.767334,380.566101 780.153015,393.570953 
	C780.925964,395.145081 781.377930,397.047638 783.169983,397.908051 
	C794.052185,391.925354 799.311035,379.283508 796.040222,367.134033 
	C792.202820,352.879791 781.169006,344.348999 766.095520,344.739380 
z"/>
<path fill="#000000" opacity="1.000000" stroke="none" 
	d="
M233.767380,324.802826 
	C229.624084,332.048462 227.356384,339.494385 227.359390,347.476990 
	C227.360779,351.183014 225.314911,351.466797 222.547272,351.338196 
	C219.749802,351.208160 216.612442,351.799622 216.640167,347.355957 
	C216.757736,328.521790 224.361267,313.289307 239.797699,302.737366 
	C250.020966,295.748993 260.854706,298.100311 270.843353,304.391479 
	C277.183044,308.384369 283.319550,312.702332 289.511688,316.926422 
	C297.353485,322.275787 305.118866,327.738342 313.005096,333.020782 
	C315.381439,334.612549 316.599945,336.356781 314.225494,338.541077 
	C312.004608,340.584167 311.914886,346.704163 306.377930,343.066711 
	C304.737488,341.988983 303.077759,340.940521 300.719666,339.423767 
	C304.015167,353.167480 299.017029,363.909821 290.945557,373.588135 
	C284.893188,380.845337 277.219330,385.495239 267.493195,384.602264 
	C251.319916,383.117310 242.251648,367.807343 248.079727,352.399323 
	C251.906433,342.282471 259.074432,334.191071 264.803772,325.233154 
	C269.554932,317.804657 269.509155,317.290771 261.388672,313.396759 
	C253.987839,309.847870 247.174347,310.847565 240.929672,316.052856 
	C238.086700,318.422668 235.832886,321.304626 233.767380,324.802826 
M265.211151,341.680939 
	C262.631866,345.358368 260.164642,349.108398 258.535431,353.321594 
	C255.889725,360.163422 257.087830,365.459717 262.103851,369.468384 
	C267.375763,373.681549 273.190338,373.928406 279.182983,370.065826 
	C284.248138,366.801086 287.423492,361.917175 289.998871,356.660004 
	C295.181274,346.081116 294.099609,330.693665 276.973663,324.489471 
	C273.261871,329.935699 269.454315,335.522400 265.211151,341.680939 
z"/>
<path fill="#000000" opacity="1.000000" stroke="none" 
	d="
M337.957397,824.130310 
	C319.691345,813.073242 301.726837,802.223816 283.784088,791.338562 
	C278.785431,788.306152 278.691711,783.232605 283.463257,779.709839 
	C285.533600,778.181335 286.943115,779.913208 288.376678,780.773804 
	C301.799286,788.831604 315.137970,797.029419 328.569305,805.072510 
	C341.816467,813.005371 338.192596,812.794189 345.634216,801.207642 
	C350.222992,794.063049 354.307343,786.593689 358.918457,779.464417 
	C360.996399,776.251648 360.336365,774.609131 357.238556,772.764587 
	C343.786926,764.755310 330.564331,756.353149 316.985535,748.570007 
	C312.235291,745.847168 313.431366,743.556702 315.393188,739.899536 
	C317.669495,735.656250 319.930786,736.845520 322.969330,738.705566 
	C336.037140,746.705322 349.235138,754.493103 362.271912,762.542419 
	C365.993011,764.839966 368.054993,764.706970 370.422058,760.513306 
	C376.395996,749.929871 383.048309,739.731750 389.201385,729.245728 
	C391.110962,725.991394 392.842926,725.707336 395.935699,727.661743 
	C402.713715,731.945251 402.808319,731.822327 398.559601,738.850525 
	C381.842987,766.503113 365.118469,794.150879 348.395721,821.799805 
	C344.522766,828.203186 344.520691,828.201965 337.957397,824.130310 
z"/>
<path fill="#000000" opacity="1.000000" stroke="none" 
	d="
M781.695801,546.652832 
	C762.096069,540.876404 751.328796,525.587280 751.592529,504.341187 
	C751.852844,483.367004 765.313171,466.923737 785.302917,463.159943 
	C804.050049,459.630127 822.370300,467.231232 831.254028,482.225189 
	C840.713379,498.190674 839.459167,519.494873 827.546753,533.758240 
	C817.271729,546.061035 803.450012,549.646912 787.958191,547.933472 
	C785.983948,547.715149 784.045532,547.172302 781.695801,546.652832 
M826.607788,503.793243 
	C825.760437,498.533905 824.872498,493.306061 821.707275,488.783478 
	C813.926025,477.665283 803.011414,474.193329 789.955017,475.181519 
	C767.918152,476.849426 754.843201,501.985321 766.325195,520.902649 
	C773.821655,533.253540 788.621155,538.757202 803.784485,534.833252 
	C817.625549,531.251343 826.213379,519.905640 826.607788,503.793243 
z"/>
<path fill="#000000" opacity="1.000000" stroke="none" 
	d="
M280.784637,734.813782 
	C278.186768,736.933594 275.786163,738.740479 273.563141,740.744324 
	C271.085968,742.977173 268.992188,743.223267 267.073181,740.132751 
	C266.549530,739.289368 265.930176,738.467407 265.208984,737.791016 
	C262.181885,734.952148 263.190063,732.856323 266.061646,730.546692 
	C277.221130,721.570923 288.302185,712.496277 299.337799,703.368225 
	C309.870605,694.656128 312.874542,685.804626 308.833588,675.962646 
	C303.791687,663.682678 292.719391,656.339600 280.422424,657.336487 
	C274.044006,657.853577 268.753906,661.024048 263.897034,664.948730 
	C253.408691,673.423950 242.826447,681.790710 232.555771,690.523193 
	C228.955780,693.584045 227.274185,691.610291 225.465469,689.000977 
	C223.779739,686.569031 219.879379,684.583374 224.394928,680.938782 
	C244.222931,664.935242 263.927399,648.778320 283.622131,632.610535 
	C285.982452,630.672974 287.924927,630.693909 289.280060,633.349792 
	C290.566162,635.870361 295.620819,637.565430 291.471527,641.527039 
	C289.552460,643.359314 287.518707,645.071411 285.546539,646.829407 
	C285.814117,648.077026 286.814484,647.720093 287.529297,647.792480 
	C303.827271,649.443726 318.259888,662.057129 322.162415,678.001953 
	C324.913055,689.240479 321.588013,698.793762 313.843658,706.876892 
	C305.295929,715.798523 295.057220,722.789551 285.670807,730.758484 
	C284.147949,732.051331 282.597778,733.312134 280.784637,734.813782 
z"/>
<path fill="#000000" opacity="1.000000" stroke="none" 
	d="
M356.989105,302.006287 
	C343.656281,313.745758 328.879028,318.815948 312.052338,312.205444 
	C295.546051,305.720795 285.989655,292.950317 283.240479,275.530121 
	C279.410126,251.258621 304.781586,225.138474 329.167847,227.871948 
	C329.993195,227.964447 330.858093,228.014130 331.619873,228.305283 
	C333.833832,229.151398 337.414764,228.396454 336.592743,232.811111 
	C335.457062,238.910294 334.060638,240.367172 329.484894,239.601395 
	C310.952637,236.499863 293.417816,254.013336 295.368713,273.676056 
	C296.560089,285.683655 308.065369,298.793274 320.359131,302.151154 
	C332.013458,305.334412 345.746185,300.020721 353.254883,289.390869 
	C356.100616,285.362213 358.014465,280.946594 357.942322,275.936096 
	C357.860291,270.239532 361.853729,270.865631 365.535309,270.686493 
	C370.039093,270.467346 369.646271,273.642670 369.564301,276.427338 
	C369.261963,286.697357 364.469299,294.830780 356.989105,302.006287 
z"/>
<path fill="#000000" opacity="1.000000" stroke="none" 
	d="
M722.332397,260.211792 
	C713.600891,280.670959 705.000793,300.770996 696.398071,320.877136 
	C698.925842,322.059418 700.390930,320.884125 701.875427,320.375336 
	C721.711426,313.577332 741.517700,306.692841 761.343567,299.865173 
	C768.997314,297.229340 771.428955,298.341858 775.221252,306.039124 
	C774.496887,307.606079 772.865173,307.764221 771.513245,308.237366 
	C745.759827,317.250305 719.953308,326.113922 694.264954,335.307922 
	C689.619690,336.970459 687.290955,334.906799 684.426941,332.044708 
	C681.548950,329.168610 681.031860,326.633575 682.698425,322.788361 
	C693.486206,297.897644 704.023865,272.898499 714.662781,247.943085 
	C715.235962,246.598495 715.539001,245.045959 716.973694,244.233032 
	C724.782532,248.147919 726.010132,251.653534 722.332397,260.211792 
z"/>
<path fill="#000000" opacity="1.000000" stroke="none" 
	d="
M178.690842,404.269958 
	C176.763855,403.593384 175.195450,403.034149 173.632751,402.459381 
	C166.761383,399.932129 166.934525,399.987946 169.237885,393.069366 
	C170.387497,389.616241 171.931183,388.402924 175.414276,389.978333 
	C177.373795,390.864624 179.531555,391.305817 181.584808,391.992920 
	C188.193359,394.204559 188.179977,394.209015 190.540100,387.403076 
	C192.067841,382.997559 193.769547,378.647064 195.141266,374.194244 
	C196.483734,369.836365 199.183060,371.421783 201.862717,372.322601 
	C204.557678,373.228607 206.851349,374.017975 205.328522,377.870819 
	C202.828278,384.196655 200.766830,390.695953 198.261871,397.861481 
	C205.767670,400.583191 212.866425,403.225128 220.012817,405.731262 
	C228.656265,408.762360 237.271973,411.900360 246.024704,414.584381 
	C255.529861,417.499146 262.893127,412.263977 263.843262,402.271271 
	C264.031555,400.291168 264.043121,398.260742 263.837280,396.284668 
	C263.543274,393.462311 264.906006,392.274719 267.463348,392.049774 
	C270.106873,391.817230 273.185425,391.127075 273.964905,394.794891 
	C276.459778,406.534485 270.767700,424.489899 256.443817,427.742645 
	C250.999756,428.978943 245.866257,427.940216 240.778061,426.167908 
	C226.939209,421.347534 213.059128,416.637817 199.306839,411.581146 
	C195.154495,410.054382 193.047028,410.866302 192.210617,415.162415 
	C192.021652,416.132935 191.575394,417.054230 191.238449,417.994904 
	C189.255768,423.529663 185.896942,424.433838 181.141937,420.826904 
	C179.632660,419.682098 179.654587,418.358826 180.182571,416.849426 
	C180.842239,414.963684 181.401642,413.020294 182.281784,411.238861 
	C184.132797,407.492493 183.066071,405.283447 178.690842,404.269958 
z"/>
<path fill="#000000" opacity="1.000000" stroke="none" 
	d="
M194.835709,653.905151 
	C188.917282,656.673767 183.289810,659.178040 177.773117,661.906372 
	C174.770126,663.391479 172.386124,663.825623 171.237717,659.863342 
	C170.308533,656.657288 166.118576,653.466980 172.291031,650.613403 
	C202.046509,636.857422 231.682968,622.844055 261.362640,608.924072 
	C264.978516,607.228271 268.640411,605.624695 272.205719,603.829041 
	C274.666016,602.589844 276.280487,603.021667 277.273346,605.652832 
	C277.683167,606.738831 278.144928,607.835815 278.775024,608.802734 
	C281.133423,612.421448 279.812378,614.263062 276.142639,615.955139 
	C253.024872,626.614197 229.993500,637.460632 206.933136,648.244324 
	C203.014221,650.076782 199.092987,651.904358 194.835709,653.905151 
z"/>
<path fill="#000000" opacity="1.000000" stroke="none" 
	d="
M850.616455,429.761353 
	C817.769348,437.238068 785.291016,444.463135 752.901917,452.067780 
	C747.417603,453.355469 746.663513,450.953339 745.421448,446.705414 
	C743.964844,441.724091 746.281433,440.641510 750.210571,439.748383 
	C784.750366,431.897552 819.265564,423.938202 853.813599,416.124207 
	C855.869690,415.659180 858.615845,413.626495 860.197876,416.187531 
	C861.914368,418.966248 862.555725,422.382202 862.399048,425.754974 
	C862.329651,427.248138 860.844727,427.334198 859.761353,427.605316 
	C856.858276,428.331696 853.932190,428.966309 850.616455,429.761353 
z"/>
<path fill="#000000" opacity="1.000000" stroke="none" 
	d="
M256.583374,571.469849 
	C263.635162,569.330139 267.067047,572.017883 266.937836,579.045349 
	C266.890686,581.611267 264.915771,581.820557 263.238159,582.341492 
	C245.446533,587.866455 227.649933,593.375610 209.841934,598.847595 
	C192.829666,604.075073 175.760468,609.122681 158.811752,614.547607 
	C154.707428,615.861267 153.029999,614.887939 152.184036,610.882141 
	C151.453857,607.424683 149.125183,604.267517 155.002396,602.506958 
	C188.789719,592.385742 222.476654,581.929382 256.583374,571.469849 
z"/>
<path fill="#000000" opacity="1.000000" stroke="none" 
	d="
M666.741211,723.214844 
	C662.481934,717.217163 658.527161,711.437866 654.317078,705.851013 
	C652.322205,703.203857 652.083374,701.529602 655.157715,699.425476 
	C661.697876,694.949341 661.659973,694.740479 666.239807,701.117188 
	C680.139160,720.469971 693.828735,739.975952 707.944763,759.168762 
	C711.596863,764.134277 708.292419,765.494324 705.291809,768.020325 
	C701.640320,771.094360 699.865723,769.292847 697.981445,766.169495 
	C696.709839,764.061523 695.127136,762.141235 693.098083,759.324219 
	C693.154602,771.283386 688.226929,779.883972 679.874634,786.760010 
	C677.579529,788.649414 675.374390,789.464966 673.901733,786.158569 
	C672.670227,783.393494 666.959473,781.111755 672.418274,777.291565 
	C686.723755,767.280212 686.458496,751.585022 677.961853,738.983398 
	C674.423279,733.735229 670.622559,728.663879 666.741211,723.214844 
z"/>
</svg>