<svg viewBox="0 0 24 24" xmlns="http://www.w3.org/2000/svg"><path d="m0 0h24v24h-24z" fill="none"/><path d="m9.822 2.238a9 9 0 0 0 11.94 11.94c-.994 4.476-4.987 7.822-9.762 7.822-5.523 0-10-4.477-10-10 0-4.775 3.346-8.768 7.822-9.762zm8.342.053.836.209v1l-.836.209a2 2 0 0 0 -1.455 1.455l-.209.836h-1l-.209-.836a2 2 0 0 0 -1.455-1.455l-.836-.209v-1l.836-.209a2 2 0 0 0 1.454-1.455l.21-.836h1l.209.836a2 2 0 0 0 1.455 1.455zm5 5 .836.209v1l-.836.209a2 2 0 0 0 -1.455 1.455l-.209.836h-1l-.209-.836a2 2 0 0 0 -1.455-1.455l-.836-.209v-1l.836-.209a2 2 0 0 0 1.455-1.455l.209-.836h1l.209.836a2 2 0 0 0 1.455 1.455z"/></svg>